{
  "accessors": [
    {
      "bufferView": 1,
      "componentType": 5126,
      "count": 7663,
      "max": [
        74.46417999267578,
        25.401094436645508,
        50.79974365234375
      ],
      "min": [
        -77.91199493408203,
        -25.3989315032959,
        -50.8002815246582
      ],
      "type": "VEC3"
    },
    {
      "bufferView": 1,
      "byteOffset": 91956,
      "componentType": 5126,
      "count": 7663,
      "max": [
        1.0,
        1.0,
        1.0
      ],
      "min": [
        -1.0,
        -1.0,
        -1.0
      ],
      "type": "VEC3"
    },
    {
      "bufferView": 0,
      "componentType": 5125,
      "count": 44838,
      "type": "SCALAR"
    }
  ],
  "asset": {
    "extras": {
      "author": "roma92220 (https://sketchfab.com/roma92220)",
      "license": "CC-BY-4.0 (http://creativecommons.org/licenses/by/4.0/)",
      "source": "https://sketchfab.com/3d-models/ellipsoid-64bf20c21e7942618312fdec0472c64f",
      "title": "Ellipsoid"
    },
    "generator": "Sketchfab-13.31.0",
    "version": "2.0"
  },
  "bufferViews": [
    {
      "buffer": 0,
      "byteLength": 179352,
      "name": "floatBufferViews",
      "target": 34963
    },
    {
      "buffer": 0,
      "byteLength": 183912,
      "byteOffset": 179352,
      "byteStride": 12,
      "name": "floatBufferViews",
      "target": 34962
    }
  ],
  "buffers": [
    {
      "byteLength": 363264,
      "uri": "scene.bin"
    }
  ],
  "materials": [
    {
      "doubleSided": true,
      "name": "Scene_-_Root",
      "pbrMetallicRoughness": {
        "metallicFactor": 0.0,
        "roughnessFactor": 0.6
      }
    }
  ],
  "meshes": [
    {
      "name": "Ellipsoid_With_Airhole__0",
      "primitives": [
        {
          "attributes": {
            "NORMAL": 1,
            "POSITION": 0
          },
          "indices": 2,
          "material": 0,
          "mode": 4
        }
      ]
    }
  ],
  "nodes": [
    {
      "children": [
        1
      ],
      "matrix": [
        1.0,
        0.0,
        0.0,
        0.0,
        0.0,
        2.220446049250313e-16,
        -1.0,
        0.0,
        0.0,
        1.0,
        2.220446049250313e-16,
        0.0,
        0.0,
        0.0,
        0.0,
        1.0
      ],
      "name": "Sketchfab_model"
    },
    {
      "children": [
        2
      ],
      "matrix": [
        0.02539999969303608,
        0.0,
        0.0,
        0.0,
        0.0,
        0.0,
        0.02539999969303608,
        0.0,
        0.0,
        -0.02539999969303608,
        0.0,
        0.0,
        0.0,
        0.0,
        0.0,
        1.0
      ],
      "name": "44c2323d551b4f3682c722770714a96d.fbx"
    },
    {
      "children": [
        3
      ],
      "name": "RootNode"
    },
    {
      "children": [
        4
      ],
      "matrix": [
        1.1731750965118408,
        0.0,
        0.0,
        0.0,
        0.0,
        4.726043622611418e-16,
        -2.128420829772949,
        0.0,
        0.0,
        1.0,
        2.220446049250313e-16,
        0.0,
        77.91199493408203,
        101.60028076171875,
        -25.3989315032959,
        1.0
      ],
      "name": "Ellipsoid_With_Airhole"
    },
    {
      "mesh": 0,
      "name": "Ellipsoid_With_Airhole__0"
    }
  ],
  "scene": 0,
  "scenes": [
    {
      "name": "Sketchfab_Scene",
      "nodes": [
        0
      ]
    }
  ]
}
